<?xml version="1.0" encoding="UTF-8" standalone="no"?>
<!DOCTYPE svg PUBLIC "-//W3C//DTD SVG 20010904//EN" "http://www.w3.org/TR/2001/REC-SVG-20010904/DTD/svg10.dtd">
<svg version="1.0" xmlns="http://www.w3.org/2000/svg" width="252.000000pt" height="172.000000pt" viewBox="0 0 252.000000 172.000000" preserveAspectRatio="xMidYMid meet">
<metadata>
Created by potrace 1.13, written by Peter Selinger 2001-2015
</metadata>
<g transform="translate(0.000000,172.000000) scale(0.100000,-0.100000)" fill="#000000" stroke="none">
<path d="M761 1455 c-5 -22 -15 -62 -21 -90 -20 -91 -17 -88 -50 -65 -15 11 -30 20 -33 20 -3 0 -8 -16 -11 -35 -4 -22 -15 -39 -31 -47 -13 -7 -44 -24 -68 -37 -28 -14 -48 -33 -51 -47 -5 -18 -14 -23 -43 -26 l-36 -3 -123 -470 c-68 -259 -124 -471 -124 -472 0 -2 200 -3 445 -3 363 0 445 -2 445 -13 0 -22 42 -54 85 -66 90 -24 214 -5 256 40 l27 29 457 0 c437 0 456 1 451 18 -7 22 -246 913 -246 917 0 1 -21 5 -47 7 -57 6 -140 58 -149 93 l-6 24 -49 -20 c-60 -23 -93 -24 -173 -3 -75 20 -216 21 -314 1 l-73 -14 -21 41 c-46 92 -83 105 -223 80 -91 -17 -96 -16 -136 1 -48 22 -83 65 -109 132 l-18 48 -11 -40z m52 -94 c16 -24 44 -47 73 -62 45 -21 52 -22 129 -11 153 22 187 14 219 -52 14 -30 16 -87 16 -455 0 -232 -4 -421 -8 -421 -5 0 -45 24 -90 54 -151 99 -263 127 -408 102 -109 -19 -164 -21 -164 -3 -1 40 187 887 196 887 6 0 23 -17 37 -39z m-115 -98 c20 -18 19 -20 -59 -388 -43 -203 -79 -376 -79 -384 0 -11 15 -12 78 -7 191 16 251 18 305 6 58 -12 172 -64 217 -100 22 -17 18 -16 -36 5 -160 64 -250 73 -473 45 -95 -11 -176 -19 -179 -16 -7 7 190 856 199 856 4 0 16 -8 27 -17z m-73 -55 c-15 -45 -185 -802 -180 -806 3 -3 87 5 186 17 193 24 258 23 379 -6 36 -8 81 -24 100 -35 19 -10 26 -17 15 -14 -163 38 -189 41 -315 41 -121 0 -239 -12 -355 -36 -22 -4 -41 -6 -43 -4 -2 2 1 25 7 52 40 167 54 227 71 303 11 47 33 141 50 210 16 69 37 157 45 195 19 87 22 95 34 95 6 0 8 -6 6 -12z m-64 -130 c-18 -65 -43 -171 -142 -597 -16 -69 -27 -126 -24 -129 2 -2 71 5 152 17 189 27 359 27 463 1 l75 -19 -60 7 c-148 16 -427 -5 -623 -48 -29 -7 -55 -10 -57 -8 -2 1 12 66 32 143 19 77 39 163 45 190 6 28 18 79 28 115 10 36 21 81 25 100 23 113 78 327 88 339 21 25 20 -31 -2 -111z m1108 100 c99 -21 106 -21 150 -5 25 9 48 13 52 9 9 -11 232 -822 227 -827 -2 -2 -60 3 -129 11 -91 12 -174 14 -309 11 -191 -6 -263 -18 -342 -58 l-38 -19 0 430 c0 366 2 431 14 436 31 12 164 32 216 33 30 1 102 -9 159 -21z m-1145 -55 c-3 -21 -9 -47 -14 -58 -4 -11 -26 -96 -48 -190 -40 -165 -127 -526 -137 -573 -5 -19 -2 -23 12 -18 31 8 173 33 295 51 89 14 155 16 275 12 169 -5 233 -19 311 -64 43 -24 44 -24 106 -9 141 36 325 45 521 25 166 -16 335 -23 335 -13 0 5 -47 189 -104 409 -57 220 -99 402 -94 404 6 2 16 -3 22 -10 14 -15 216 -791 216 -827 l0 -22 -404 0 -404 0 -6 -25 c-12 -46 -59 -65 -166 -65 -112 0 -156 19 -167 70 l-5 30 -395 0 c-371 0 -394 1 -389 18 3 9 54 206 115 437 106 407 119 455 126 455 2 0 1 -17 -1 -37z m1412 9 c6 -4 57 -185 113 -402 55 -217 104 -405 107 -418 6 -21 3 -22 -45 -22 -29 0 -116 7 -194 16 -103 12 -197 15 -342 11 -176 -4 -195 -3 -156 9 140 41 384 44 665 7 48 -6 49 -5 44 18 -3 13 -53 195 -112 403 -58 209 -106 381 -106 383 0 5 15 3 26 -5z"/>
</g>
</svg>