<?xml version="1.0" encoding="UTF-8" standalone="no"?>
<!-- Generator: Adobe Illustrator 16.0.0, SVG Export Plug-In . SVG Version: 6.00 Build 0)  -->

<svg
   xmlns:dc="http://purl.org/dc/elements/1.1/"
   xmlns:cc="http://creativecommons.org/ns#"
   xmlns:rdf="http://www.w3.org/1999/02/22-rdf-syntax-ns#"
   xmlns:svg="http://www.w3.org/2000/svg"
   xmlns="http://www.w3.org/2000/svg"
   xmlns:sodipodi="http://sodipodi.sourceforge.net/DTD/sodipodi-0.dtd"
   xmlns:inkscape="http://www.inkscape.org/namespaces/inkscape"
   version="1.1"
   id="Capa_1"
   x="0px"
   y="0px"
   width="512px"
   height="512px"
   viewBox="0 0 512 512"
   style="enable-background:new 0 0 512 512;"
   xml:space="preserve"
   sodipodi:docname="git.svg"
   inkscape:version="0.92.4 (33fec40, 2019-01-16)"><metadata
   id="metadata43"><rdf:RDF><cc:Work
       rdf:about=""><dc:format>image/svg+xml</dc:format><dc:type
         rdf:resource="http://purl.org/dc/dcmitype/StillImage" /></cc:Work></rdf:RDF></metadata><defs
   id="defs41" /><sodipodi:namedview
   pagecolor="#ffffff"
   bordercolor="#666666"
   borderopacity="1"
   objecttolerance="10"
   gridtolerance="10"
   guidetolerance="10"
   inkscape:pageopacity="0"
   inkscape:pageshadow="2"
   inkscape:window-width="3840"
   inkscape:window-height="2086"
   id="namedview39"
   showgrid="false"
   inkscape:zoom="0.4609375"
   inkscape:cx="256"
   inkscape:cy="256"
   inkscape:window-x="0"
   inkscape:window-y="0"
   inkscape:window-maximized="1"
   inkscape:current-layer="Capa_1" />
<g
   id="g6">
	<path
   d="M256,0C114.609,0,0,114.609,0,256c0,141.391,114.609,256,256,256c141.391,0,256-114.609,256-256   C512,114.609,397.391,0,256,0z M256,472c-119.297,0-216-96.703-216-216S136.703,40,256,40s216,96.703,216,216S375.297,472,256,472z   "
   id="path2" />
	<path
   d="M336.005,128.769c-26.266,14.312-53.358,2.234-72.891,0c-86.234-9.891-113.641,77.734-50.812,112.859   c-16.172,7.312-15.109,44.453,2.203,49.733c-40.812,4.078-48.391,54.188-26.5,74.625c26.625,24.845,108.531,23.188,132.547,0   c16.767-16.219,19.109-49.625,4.422-65.03c-13.391-14.078-80.562-16.203-79.531-38.267c0.719-15.438,25.016-13,39.766-19.141   c27.734-11.547,44.047-46.109,33.141-72.703c6.188-1,11.47-2.797,17.656-3.812C336.005,154.284,336.005,141.534,336.005,128.769z    M229.974,209.128c-32.328-61.344,74.344-56.953,41.984,0C261.35,215.972,240.458,216.659,229.974,209.128z M289.63,329.645   c2.859,27.5-61.094,28.719-68.5,9.562c-6.219-16.142,1.531-20.72,19.891-24.875C261.816,309.611,287.708,311.236,289.63,329.645z"
   id="path4" />
</g>
<g
   id="g8">
</g>
<g
   id="g10">
</g>
<g
   id="g12">
</g>
<g
   id="g14">
</g>
<g
   id="g16">
</g>
<g
   id="g18">
</g>
<g
   id="g20">
</g>
<g
   id="g22">
</g>
<g
   id="g24">
</g>
<g
   id="g26">
</g>
<g
   id="g28">
</g>
<g
   id="g30">
</g>
<g
   id="g32">
</g>
<g
   id="g34">
</g>
<g
   id="g36">
</g>
<path
   style="fill:#ffffff;stroke-width:2.16949153"
   d="M 212.25189,507.0157 C 159.51856,497.45677 114.17648,473.65827 76.042153,435.52395 -2.9237009,356.5581 -21.373891,237.33077 30.070322,138.44848 56.653657,87.351953 105.77192,42.272312 158.11441,20.932495 258.40553,-19.955785 367.48913,3.5963097 441.45456,82.108095 515.2599,160.44996 531.78409,274.70095 483.2043,370.77239 446.76762,442.82956 378.81298,493.1371 299.15108,507.02898 c -22.42389,3.9104 -65.28981,3.90385 -86.89919,-0.013 z m 93.86336,-39.98587 c 48.45443,-11.65649 92.9018,-40.69498 123.10364,-80.42644 13.77219,-18.11775 30.66016,-52.69107 36.56061,-74.84746 6.57317,-24.68252 8.13996,-72.0545 3.19094,-96.47889 C 452.03096,131.67732 392.40719,68.063353 310.27282,45.958925 285.95781,39.415146 245.15026,37.886776 218.5843,42.524904 165.08007,51.866153 116.07251,81.625648 83.703439,124.43035 c -66.396121,87.80191 -57.399192,210.60401 20.968121,286.2009 35.42112,34.1689 75.42085,53.90466 122.79893,60.58864 19.4698,2.74675 58.4402,0.67049 78.64476,-4.19006 z"
   id="path45"
   inkscape:connector-curvature="0" /><path
   style="fill:#ffffff;stroke-width:2.16949153"
   d="m 219.33559,379.24482 c -23.28263,-6.20639 -33.51612,-13.64365 -39.17999,-28.47427 -8.92877,-23.37965 5.2016,-52.25996 27.79016,-56.79886 7.10761,-1.42818 7.15837,-1.63367 1.74156,-7.05048 -9.61632,-9.61632 -9.82858,-33.89924 -0.36335,-41.56767 4.20538,-3.40706 4.10946,-3.63123 -4.17758,-9.76271 -31.98439,-23.66485 -34.44338,-63.72662 -5.47658,-89.22421 19.19776,-16.89854 39.57535,-20.32927 80.34206,-13.52622 27.24209,4.54609 30.21092,4.66366 42.42375,1.68009 l 13.13179,-3.20808 -0.62438,17.46824 -0.62439,17.46825 -7.83557,1.84723 -7.83559,1.84724 1.04328,14.58107 c 0.8474,11.84359 0.13631,16.68936 -3.7876,25.81072 -5.94256,13.81386 -22.37573,29.72662 -33.92097,32.84674 -4.62512,1.24995 -14.06132,3.80517 -20.96933,5.67827 -14.5067,3.93347 -19.25218,10.07108 -15.00091,19.40158 3.26599,7.16809 10.19023,10.41121 41.85695,19.60464 14.80838,4.29915 29.365,9.54989 32.34805,11.66832 17.99658,12.78037 17.18752,48.40661 -1.49748,65.94031 -11.39355,10.69149 -28.61869,15.26003 -60.33303,16.00175 -18.62103,0.43551 -31.88891,-0.32282 -39.05085,-2.23195 z m 55.32204,-29.963 c 9.08453,-3.38059 15.18644,-10.57117 15.18644,-17.89591 0,-10.50873 -5.09991,-15.74934 -18.17373,-18.67513 -18.06135,-4.04196 -46.22609,2.01729 -51.90014,11.16558 -3.46772,5.59101 0.12051,18.49115 6.26285,22.51576 10.88799,7.1341 33.59283,8.48341 48.62458,2.8897 z M 266.8405,212.19269 c 7.87966,-3.29233 12.15611,-11.82513 12.15611,-24.25506 0,-9.63753 -8.83996,-19.74508 -19.86534,-22.71391 -19.37094,-5.21605 -36.54144,5.55826 -36.54144,22.92937 0,8.47103 6.35511,21.97504 11.51511,24.46852 6.86012,3.31503 24.32264,3.08622 32.73556,-0.42892 z"
   id="path47"
   inkscape:connector-curvature="0" /></svg>